<svg width="28" height="28" viewBox="0 0 28 28" fill="none" xmlns="http://www.w3.org/2000/svg">
<path fill-rule="evenodd" clip-rule="evenodd" d="M3.6875 0.875C2.1342 0.875 0.875 2.1342 0.875 3.6875V9.3125C0.875 10.8658 2.1342 12.125 3.6875 12.125H9.3125C10.8658 12.125 12.125 10.8658 12.125 9.3125V3.6875C12.125 2.1342 10.8658 0.875 9.3125 0.875H3.6875ZM2.75 3.6875C2.75 3.16973 3.16973 2.75 3.6875 2.75H9.3125C9.83027 2.75 10.25 3.16973 10.25 3.6875V9.3125C10.25 9.83027 9.83027 10.25 9.3125 10.25H3.6875C3.16973 10.25 2.75 9.83027 2.75 9.3125V3.6875ZM15.875 3.6875C15.875 2.1342 17.1342 0.875 18.6875 0.875H24.3125C25.8658 0.875 27.125 2.1342 27.125 3.6875V9.3125C27.125 10.8658 25.8658 12.125 24.3125 12.125H18.6875C17.1342 12.125 15.875 10.8658 15.875 9.3125V3.6875ZM17.75 3.6875C17.75 3.16973 18.1697 2.75 18.6875 2.75H24.3125C24.8303 2.75 25.25 3.16973 25.25 3.6875V9.3125C25.25 9.83027 24.8303 10.25 24.3125 10.25H18.6875C18.1697 10.25 17.75 9.83027 17.75 9.3125V3.6875ZM0.875 18.6875C0.875 17.1342 2.1342 15.875 3.6875 15.875H9.3125C10.8658 15.875 12.125 17.1342 12.125 18.6875V24.3125C12.125 25.8658 10.8658 27.125 9.3125 27.125H3.6875C2.1342 27.125 0.875 25.8658 0.875 24.3125V18.6875ZM2.75 18.6875C2.75 18.1697 3.16973 17.75 3.6875 17.75H9.3125C9.83027 17.75 10.25 18.1697 10.25 18.6875V24.3125C10.25 24.8303 9.83027 25.25 9.3125 25.25H3.6875C3.16973 25.25 2.75 24.8303 2.75 24.3125V18.6875ZM15.875 18.6875C15.875 17.1342 17.1342 15.875 18.6875 15.875H24.3125C25.8658 15.875 27.125 17.1342 27.125 18.6875V24.3125C27.125 25.8658 25.8658 27.125 24.3125 27.125H18.6875C17.1342 27.125 15.875 25.8658 15.875 24.3125V18.6875ZM17.75 18.6875C17.75 18.1697 18.1697 17.75 18.6875 17.75H24.3125C24.8303 17.75 25.25 18.1697 25.25 18.6875V24.3125C25.25 24.8303 24.8303 25.25 24.3125 25.25H18.6875C18.1697 25.25 17.75 24.8303 17.75 24.3125V18.6875Z" fill="#0D9ABF"/>
</svg>
