<svg width="30" height="28" viewBox="0 0 30 28" fill="none" xmlns="http://www.w3.org/2000/svg">
<path fill-rule="evenodd" clip-rule="evenodd" d="M19.6444 2.0881C19.7968 1.59366 19.5199 1.06917 19.0256 0.916225V0.9181C18.5312 0.765623 18.0067 1.04255 17.8537 1.53685L10.3537 25.9118C10.2246 26.3985 10.5029 26.9002 10.984 27.0483C11.4652 27.1965 11.9775 26.9381 12.1444 26.4631L19.6444 2.0881ZM9.10125 6.77373C9.27758 6.94961 9.37667 7.18842 9.37667 7.43748C9.37667 7.68653 9.27758 7.92534 9.10125 8.10122L3.20062 14L9.10125 19.8987C9.46783 20.2653 9.46783 20.8596 9.10125 21.2262C8.73467 21.5928 8.14033 21.5928 7.77375 21.2262L1.21125 14.6637C1.03492 14.4878 0.935822 14.249 0.935822 14C0.935822 13.7509 1.03492 13.5121 1.21125 13.3362L7.77375 6.77373C7.94963 6.5974 8.18845 6.4983 8.4375 6.4983C8.68655 6.4983 8.92536 6.5974 9.10125 6.77373ZM20.8987 6.77373C20.7224 6.94961 20.6233 7.18842 20.6233 7.43748C20.6233 7.68653 20.7224 7.92534 20.8987 8.10122L26.7994 14L20.8987 19.8987C20.6616 20.1359 20.569 20.4815 20.6558 20.8054C20.7426 21.1294 20.9956 21.3824 21.3195 21.4692C21.6435 21.556 21.9891 21.4634 22.2262 21.2262L28.7887 14.6637C28.9651 14.4878 29.0642 14.249 29.0642 14C29.0642 13.7509 28.9651 13.5121 28.7887 13.3362L22.2262 6.77373C22.0504 6.5974 21.8115 6.4983 21.5625 6.4983C21.3134 6.4983 21.0746 6.5974 20.8987 6.77373Z" fill="#0D9ABF"/>
</svg>
