<svg width="30" height="30" viewBox="0 0 30 30" fill="none" xmlns="http://www.w3.org/2000/svg">
<path fill-rule="evenodd" clip-rule="evenodd" d="M16.7644 0.815634C15.6616 0.227634 14.3384 0.227634 13.2356 0.815634L1.98563 6.81563C0.763334 7.46737 -0.000138504 8.73982 1.88468e-08 10.125V26.25C1.88468e-08 28.3211 1.67893 30 3.75 30H26.25C28.3211 30 30 28.3211 30 26.25V10.125C30.0001 8.73982 29.2367 7.46737 28.0144 6.81563L16.7644 0.815634ZM15.8813 2.47126C15.3304 2.17792 14.6696 2.17792 14.1187 2.47126L2.86875 8.47126C2.25754 8.79671 1.87546 9.43255 1.875 10.125V11.6588L12.6075 18.1556L15 16.7194L17.3925 18.1556L28.125 11.6588V10.125C28.1245 9.43255 27.7425 8.79671 27.1313 8.47126L15.8813 2.47126ZM28.125 13.8525L19.2113 19.2469L28.125 24.5944V13.8525ZM15 18.9056L28.0594 26.7413C27.8376 27.558 27.0963 28.125 26.25 28.125H3.75C2.90424 28.1252 2.16306 27.5591 1.94062 26.7431L15 18.9056ZM1.875 24.5944L10.7887 19.2469L1.875 13.8506V24.5944Z" fill="#0D9ABF"/>
</svg>
